<svg viewBox="0 0 168 44" fill="none" xmlns="http://www.w3.org/2000/svg">
<rect y="0.141357" width="43.7171" height="43.7171" rx="11.0884" fill="#241F25"/>
<path d="M23.1177 33.216H20.5612C19.9764 33.216 19.5407 32.6764 19.6639 32.1046L20.9726 26.0329C21.1818 25.0621 22.5691 25.0687 22.7691 26.0415L24.0169 32.1133C24.1339 32.6826 23.699 33.216 23.1177 33.216Z" fill="white"/>
<path d="M17.76 14.2262L10.9965 30.653C10.5246 31.8571 11.4125 33.1586 12.7058 33.1586H14.5649C15.3723 33.1586 16.0849 32.6312 16.3207 31.859L20.0369 19.6904C20.5646 17.9625 23.0084 17.9558 23.5456 19.6808L27.3406 31.8686C27.5795 32.6359 28.2898 33.1586 29.0934 33.1586H31.0113C32.3063 33.1586 33.1943 31.8539 32.7191 30.6492L25.9096 14.2172C25.2499 12.5446 23.5885 10.7839 21.7905 10.7839C19.9889 10.7839 18.4173 12.5488 17.76 14.2262Z" fill="white"/>
<path d="M161.542 33.691C160.248 33.691 159.078 33.355 158.033 32.6831C156.988 32.0112 156.154 31.0904 155.532 29.9207C154.935 28.7262 154.636 27.3948 154.636 25.9265C154.636 24.3089 155.009 22.8531 155.756 21.559C156.503 20.24 157.486 19.1948 158.705 18.4233C159.949 17.6518 161.331 17.2661 162.849 17.2661C164.74 17.2661 166.333 17.8634 167.627 19.0579C167.876 19.2819 168 19.5059 168 19.7298C168 19.9041 167.9 20.128 167.701 20.4018C167.502 20.6755 167.266 20.9119 166.992 21.111C166.718 21.3101 166.482 21.4097 166.283 21.4097C166.084 21.4097 165.897 21.3475 165.723 21.223C165.549 21.0986 165.375 20.9617 165.2 20.8124C164.578 20.3147 163.931 19.8916 163.259 19.5432C162.587 19.1948 162.015 19.0206 161.542 19.0206C160.522 19.0206 159.725 19.4685 159.153 20.3644C158.581 21.2603 158.294 22.6042 158.294 24.396C158.294 25.6154 158.506 26.6731 158.929 27.569C159.352 28.4649 159.949 29.1617 160.721 29.6594C161.492 30.1572 162.388 30.406 163.409 30.406C164.155 30.406 164.79 30.294 165.312 30.0701C165.86 29.8212 166.432 29.4355 167.029 28.9129C167.129 28.8382 167.216 28.776 167.291 28.7262C167.39 28.6516 167.49 28.6142 167.589 28.6142C167.863 28.6142 168 28.8133 168 29.2115C168 29.311 167.975 29.4604 167.925 29.6594C167.876 29.8336 167.776 30.0327 167.627 30.2567C167.353 30.7544 166.905 31.277 166.283 31.8245C165.686 32.372 164.989 32.82 164.192 33.1684C163.396 33.5168 162.513 33.691 161.542 33.691Z" fill="#241F25"/>
<path d="M145.056 33.2029C144.857 33.2029 144.695 33.1656 144.571 33.091C144.446 32.9914 144.384 32.867 144.384 32.7177C144.384 32.5186 144.459 32.3693 144.608 32.2697C144.758 32.1702 144.932 32.0955 145.131 32.0457C145.728 31.8964 146.151 31.7347 146.4 31.5605C146.674 31.3862 146.811 31.0876 146.811 30.6645V22.5641C146.811 21.7677 146.686 21.1705 146.437 20.7723C146.189 20.3741 145.765 20.1252 145.168 20.0257C145.044 20.0008 144.944 19.9386 144.87 19.839C144.795 19.7146 144.758 19.5777 144.758 19.4284C144.758 19.08 144.894 18.8934 145.168 18.8685C146.363 18.6196 147.395 18.2837 148.267 17.8606C149.162 17.4126 149.847 17.0642 150.32 16.8154C150.668 16.6412 150.892 16.5541 150.992 16.5541C151.265 16.5541 151.402 16.6785 151.402 16.9274C151.377 17.2758 151.328 17.7611 151.253 18.3832C151.178 18.9805 151.104 19.6275 151.029 20.3243C150.979 20.9963 150.954 21.6309 150.954 22.2281V30.6272C150.954 31.0005 151.091 31.2867 151.365 31.4858C151.639 31.6849 152.074 31.8715 152.671 32.0457C152.87 32.1204 153.045 32.2075 153.194 32.307C153.343 32.3817 153.418 32.5186 153.418 32.7177C153.418 33.0163 153.206 33.1656 152.783 33.1656C152.311 33.1656 151.85 33.1532 151.402 33.1283C150.979 33.1034 150.556 33.0785 150.133 33.0536C149.735 33.0287 149.312 33.0163 148.864 33.0163C148.441 33.0163 148.03 33.0287 147.632 33.0536C147.234 33.0785 146.823 33.1034 146.4 33.1283C146.002 33.1781 145.554 33.2029 145.056 33.2029ZM148.789 14.389C148.067 14.389 147.458 14.1401 146.96 13.6424C146.462 13.1447 146.213 12.5474 146.213 11.8506C146.213 11.0791 146.462 10.4445 146.96 9.94678C147.458 9.44906 148.067 9.2002 148.789 9.2002C149.536 9.2002 150.158 9.44906 150.656 9.94678C151.153 10.4445 151.402 11.0791 151.402 11.8506C151.402 12.5474 151.153 13.1447 150.656 13.6424C150.158 14.1401 149.536 14.389 148.789 14.389Z" fill="#241F25"/>
<path d="M138.77 33.691C137.277 33.691 136.145 33.2929 135.373 32.4965C134.602 31.7001 134.216 30.5429 134.216 29.0249V20.4018C134.216 20.2027 134.129 20.0534 133.955 19.9539C133.806 19.8543 133.494 19.7921 133.022 19.7672H132.611C132.462 19.7672 132.337 19.6552 132.238 19.4313C132.138 19.1824 132.088 18.946 132.088 18.722C132.088 18.6722 132.101 18.61 132.126 18.5353C132.176 18.4358 132.238 18.3736 132.312 18.3487C132.885 18.0998 133.47 17.7639 134.067 17.3408C134.664 16.8929 135.224 16.4449 135.747 15.997C136.269 15.5241 136.705 15.1259 137.053 14.8024C137.227 14.678 137.364 14.566 137.464 14.4665C137.588 14.3669 137.725 14.3171 137.874 14.3171C138.074 14.3171 138.223 14.3669 138.322 14.4665C138.447 14.5411 138.484 14.7029 138.434 14.9517L138.21 17.0048C138.186 17.3035 138.248 17.5026 138.397 17.6021C138.571 17.7017 138.808 17.7514 139.106 17.7514H143.511C143.586 17.7514 143.661 17.8385 143.735 18.0127C143.81 18.1869 143.847 18.3611 143.847 18.5353C143.847 18.8589 143.797 19.1575 143.698 19.4313C143.623 19.705 143.524 19.8419 143.399 19.8419H139.853C139.281 19.8419 138.882 19.9041 138.658 20.0285C138.459 20.153 138.36 20.4143 138.36 20.8124V27.9797C138.36 29.0747 138.571 29.9083 138.994 30.4807C139.417 31.0282 140.015 31.302 140.786 31.302C141.483 31.302 142.006 31.2398 142.354 31.1153C142.727 30.9909 143.063 30.8416 143.362 30.6674C143.437 30.6176 143.499 30.5927 143.549 30.5927C143.673 30.5927 143.76 30.6674 143.81 30.8167C143.884 30.966 143.922 31.1278 143.922 31.302C143.922 31.4264 143.673 31.6877 143.175 32.0859C142.702 32.4841 142.068 32.8449 141.271 33.1684C140.5 33.5168 139.666 33.691 138.77 33.691Z" fill="#241F25"/>
<path d="M116.974 43.7699C116.377 43.7699 115.817 43.5708 115.295 43.1726C114.772 42.7993 114.511 42.3016 114.511 41.6795C114.511 41.2066 114.623 40.7587 114.847 40.3356C115.095 39.9125 115.456 39.701 115.929 39.701C116.278 39.701 116.626 39.7632 116.974 39.8876C117.348 40.0121 117.696 40.0618 118.02 40.037C118.318 40.0121 118.53 39.9374 118.654 39.813C118.803 39.7134 118.965 39.5144 119.139 39.2157C119.339 38.8673 119.55 38.4816 119.774 38.0585C120.023 37.6603 120.272 37.175 120.521 36.6027C120.794 36.0303 121.093 35.3459 121.417 34.5496C121.64 34.0269 121.752 33.5292 121.752 33.0564C121.752 32.7577 121.715 32.4716 121.64 32.1978C121.566 31.9241 121.479 31.6752 121.379 31.4512L116.862 20.8124C116.663 20.3146 116.414 19.8791 116.116 19.5058C115.842 19.1326 115.494 18.8837 115.071 18.7593C114.847 18.6597 114.66 18.5602 114.511 18.4606C114.386 18.3611 114.324 18.2118 114.324 18.0127C114.324 17.8136 114.423 17.7016 114.623 17.6767C114.822 17.6269 114.996 17.6021 115.145 17.6021C115.718 17.6021 116.178 17.6145 116.526 17.6394C116.875 17.6643 117.198 17.6892 117.497 17.714C117.796 17.7389 118.119 17.7514 118.467 17.7514C118.99 17.7514 119.413 17.7389 119.737 17.714C120.06 17.6892 120.396 17.6643 120.745 17.6394C121.118 17.6145 121.578 17.6021 122.126 17.6021C122.3 17.6021 122.487 17.6394 122.686 17.714C122.885 17.7638 122.984 17.8882 122.984 18.0873C122.984 18.2864 122.872 18.4482 122.648 18.5726C122.424 18.6722 122.213 18.7593 122.014 18.8339C121.765 18.9086 121.566 19.0579 121.417 19.2819C121.267 19.481 121.193 19.7796 121.193 20.1778C121.193 20.352 121.23 20.576 121.305 20.8497C121.379 21.0986 121.466 21.3723 121.566 21.6709L124.142 27.9049C124.166 28.0045 124.216 28.0543 124.291 28.0543C124.316 28.0543 124.353 28.0045 124.403 27.9049L126.531 21.8203C126.605 21.6461 126.668 21.4221 126.717 21.1483C126.792 20.8497 126.829 20.6008 126.829 20.4017C126.829 19.9538 126.717 19.6178 126.493 19.3939C126.294 19.145 126.07 18.9708 125.821 18.8712C125.622 18.7717 125.411 18.6722 125.187 18.5726C124.963 18.4482 124.851 18.2864 124.851 18.0873C124.851 17.8882 124.95 17.7638 125.149 17.714C125.373 17.6394 125.56 17.6021 125.709 17.6021C126.257 17.6021 126.717 17.6269 127.091 17.6767C127.464 17.7265 127.899 17.7514 128.397 17.7514C128.721 17.7514 128.982 17.7389 129.181 17.714C129.405 17.6892 129.641 17.6643 129.89 17.6394C130.139 17.6145 130.45 17.6021 130.823 17.6021C130.973 17.6021 131.147 17.6269 131.346 17.6767C131.57 17.7016 131.682 17.8136 131.682 18.0127C131.682 18.2118 131.607 18.3611 131.458 18.4606C131.334 18.5602 131.159 18.6597 130.935 18.7593C130.512 18.8837 130.102 19.1699 129.704 19.6178C129.305 20.0409 128.982 20.5386 128.733 21.111L123.358 34.1016C123.208 34.45 123.009 34.9104 122.76 35.4828C122.512 36.0801 122.238 36.7271 121.939 37.4239C121.665 38.1207 121.367 38.8424 121.043 39.589C120.72 40.3356 120.409 41.0697 120.11 41.7914C119.836 42.4385 119.413 42.9238 118.841 43.2473C118.293 43.5957 117.671 43.7699 116.974 43.7699Z" fill="#241F25"/>
<path d="M106.192 33.2805C105.993 33.2805 105.819 33.2431 105.669 33.1685C105.52 33.0938 105.445 32.9818 105.445 32.8325C105.445 32.6334 105.52 32.4841 105.669 32.3846C105.844 32.285 106.055 32.1855 106.304 32.0859C106.677 31.9615 107.013 31.8246 107.312 31.6753C107.635 31.526 107.797 31.19 107.797 30.6674V12.4507C107.797 11.7539 107.685 11.1691 107.461 10.6962C107.262 10.1985 106.851 9.88743 106.229 9.763C105.98 9.71323 105.856 9.52659 105.856 9.20307C105.856 8.90443 105.968 8.73023 106.192 8.68045C106.814 8.55602 107.449 8.38182 108.096 8.15784C108.768 7.93387 109.39 7.70989 109.962 7.48592C110.56 7.26194 111.057 7.08774 111.455 6.96331C111.63 6.88865 111.754 6.85132 111.829 6.85132C111.953 6.85132 112.04 6.90109 112.09 7.00064C112.14 7.0753 112.165 7.14995 112.165 7.22461C112.165 7.4237 112.127 7.80944 112.053 8.38182C111.978 8.92932 111.941 9.6759 111.941 10.6216V30.6301C111.941 31.1527 112.09 31.4887 112.389 31.638C112.687 31.7873 113.023 31.9242 113.397 32.0486C113.645 32.1481 113.844 32.2477 113.994 32.3472C114.168 32.4468 114.255 32.5961 114.255 32.7952C114.255 32.9445 114.18 33.0565 114.031 33.1311C113.882 33.2058 113.708 33.2431 113.509 33.2431C113.036 33.2431 112.6 33.2182 112.202 33.1685C111.804 33.1436 111.406 33.1311 111.007 33.1311C110.634 33.1063 110.224 33.0938 109.776 33.0938C109.353 33.0938 108.954 33.1063 108.581 33.1311C108.233 33.156 107.872 33.1809 107.499 33.2058C107.125 33.2556 106.69 33.2805 106.192 33.2805Z" fill="#241F25"/>
<path d="M86.2627 33.2805C86.0636 33.2805 85.8894 33.2432 85.7401 33.1685C85.5908 33.069 85.5161 32.9445 85.5161 32.7952C85.5161 32.5961 85.5908 32.4468 85.7401 32.3473C85.9143 32.2477 86.1258 32.1606 86.3747 32.0859C86.748 31.9864 87.084 31.8495 87.3826 31.6753C87.7061 31.5011 87.8679 31.1652 87.8679 30.6674V22.3057C87.8679 21.7333 87.7808 21.248 87.6066 20.8498C87.4573 20.4268 87.1213 20.153 86.5987 20.0286C86.4991 19.9788 86.412 19.9166 86.3374 19.8419C86.2627 19.7424 86.2254 19.5931 86.2254 19.394C86.2254 19.0705 86.3374 18.8838 86.5613 18.834C87.4324 18.635 88.2909 18.3736 89.1371 18.0501C90.0081 17.7017 90.7671 17.3409 91.4142 16.9676C91.5137 16.9178 91.6132 16.8556 91.7128 16.7809C91.8123 16.7063 91.9119 16.6689 92.0114 16.6689C92.1359 16.6689 92.2105 16.7187 92.2354 16.8183C92.2852 16.8929 92.3101 16.98 92.3101 17.0796C92.3101 17.2538 92.2727 17.5773 92.1981 18.0501C92.1483 18.523 92.1234 18.9336 92.1234 19.282C92.1234 19.3815 92.1234 19.4935 92.1234 19.618C92.1483 19.7175 92.1732 19.7797 92.1981 19.8046C93.0442 19.0082 93.9152 18.3861 94.8111 17.9381C95.7319 17.4902 96.7647 17.2662 97.9095 17.2662C99.1787 17.2662 100.236 17.7515 101.082 18.7221C101.953 19.6926 102.389 20.9743 102.389 22.567V30.7048C102.389 31.2025 102.538 31.526 102.837 31.6753C103.136 31.8246 103.472 31.9615 103.845 32.0859C104.044 32.1606 104.231 32.2602 104.405 32.3846C104.579 32.4841 104.666 32.6334 104.666 32.8325C104.666 32.9818 104.579 33.0938 104.405 33.1685C104.255 33.2432 104.106 33.2805 103.957 33.2805C103.459 33.2805 103.024 33.2556 102.65 33.2058C102.277 33.1809 101.904 33.1561 101.53 33.1312C101.182 33.1063 100.784 33.0938 100.336 33.0938C99.9128 33.0938 99.5146 33.1063 99.1413 33.1312C98.768 33.1561 98.3823 33.1809 97.9841 33.2058C97.6108 33.2556 97.1753 33.2805 96.6776 33.2805C96.5532 33.2805 96.4163 33.2432 96.267 33.1685C96.1177 33.0938 96.043 32.9818 96.043 32.8325C96.043 32.6334 96.1177 32.4841 96.267 32.3846C96.4163 32.2602 96.5905 32.1606 96.7896 32.0859C97.1629 31.9615 97.4864 31.8246 97.7601 31.6753C98.0588 31.526 98.2081 31.2025 98.2081 30.7048V23.1269C98.2081 22.1315 97.9592 21.3476 97.4615 20.7752C96.9887 20.2028 96.3416 19.9166 95.5204 19.9166C94.8485 19.9166 94.2636 20.0161 93.7659 20.2152C93.2682 20.4143 92.7829 20.7005 92.3101 21.0738C92.2105 21.1485 92.1359 21.2605 92.0861 21.4098C92.0363 21.5342 92.0114 21.6711 92.0114 21.8204V30.7048C92.0114 31.2025 92.1483 31.5385 92.422 31.7127C92.7207 31.862 93.0566 31.9864 93.4299 32.0859C93.9526 32.2602 94.2139 32.4966 94.2139 32.7952C94.2139 32.9445 94.1516 33.069 94.0272 33.1685C93.9028 33.2432 93.741 33.2805 93.5419 33.2805C93.0442 33.2805 92.6087 33.2556 92.2354 33.2058C91.8621 33.1809 91.5013 33.1561 91.1529 33.1312C90.8044 33.1063 90.4063 33.0938 89.9583 33.0938C89.5353 33.0938 89.1371 33.1063 88.7638 33.1312C88.3905 33.1561 88.0047 33.1809 87.6066 33.2058C87.2084 33.2556 86.7604 33.2805 86.2627 33.2805Z" fill="#241F25"/>
<path d="M59.5707 33.3551C59.272 33.3551 59.0232 33.3053 58.8241 33.2058C58.625 33.1311 58.5254 32.9942 58.5254 32.7952C58.5254 32.5712 58.6126 32.397 58.7868 32.2725C58.9858 32.1481 59.2347 32.0361 59.5333 31.9366C60.255 31.7375 60.8772 31.4389 61.3998 31.0407C61.9473 30.6176 62.3828 30.0452 62.7063 29.3235C63.3285 27.8552 63.9258 26.4492 64.4981 25.1053C65.0705 23.7366 65.618 22.3803 66.1406 21.0364C66.6632 19.6926 67.1858 18.3238 67.7085 16.9302C68.256 15.5366 68.8035 14.0683 69.3509 12.5253C69.6247 11.7539 69.8113 11.1566 69.9109 10.7335C70.0104 10.3105 70.0975 9.99939 70.1722 9.8003C70.5455 9.70076 70.8939 9.60121 71.2174 9.50167C71.5409 9.40212 71.9018 9.27769 72.3 9.12837C72.6484 8.95417 72.947 8.73019 73.1959 8.45644C73.4447 8.1827 73.6314 7.97117 73.7558 7.82185C73.8305 7.77208 73.9051 7.74719 73.9798 7.74719C74.0544 7.7223 74.1291 7.77207 74.2038 7.89651C74.2784 8.04582 74.3406 8.19514 74.3904 8.34446C74.4402 8.49378 74.4899 8.65554 74.5397 8.82974C75.0872 10.5967 75.6472 12.3885 76.2195 14.2052C76.8168 15.997 77.4016 17.7763 77.974 19.5433C78.5464 21.2853 79.0939 22.9651 79.6165 24.5827C80.164 26.1754 80.6617 27.6437 81.1097 28.9876C81.3337 29.6595 81.6074 30.1945 81.9309 30.5927C82.2793 30.9909 82.6526 31.302 83.0508 31.526C83.4739 31.725 83.9343 31.8868 84.432 32.0112C84.7555 32.0859 85.0044 32.1854 85.1786 32.3099C85.3528 32.4343 85.4399 32.6085 85.4399 32.8325C85.4399 32.9818 85.3528 33.0938 85.1786 33.1684C85.0293 33.2431 84.8302 33.2804 84.5813 33.2804C84.1334 33.2804 83.561 33.268 82.8642 33.2431C82.1922 33.2182 81.4954 33.1933 80.7737 33.1684C80.052 33.1187 79.405 33.0938 78.8326 33.0938C78.3349 33.0938 77.7749 33.1062 77.1528 33.1311C76.5555 33.156 75.9458 33.1809 75.3236 33.2058C74.7264 33.2307 74.2162 33.2431 73.7931 33.2431C73.5443 33.2431 73.3203 33.2058 73.1212 33.1311C72.947 33.0316 72.8599 32.8947 72.8599 32.7205C72.8599 32.5214 72.9594 32.3596 73.1585 32.2352C73.3576 32.0859 73.594 31.9864 73.8678 31.9366C74.7637 31.7873 75.4107 31.5633 75.8089 31.2647C76.2071 30.9411 76.3564 30.4807 76.2569 29.8835C76.1822 29.4604 76.0702 28.9627 75.9209 28.3903C75.7716 27.793 75.6098 27.1833 75.4356 26.5612C75.2863 25.9141 75.1245 25.3293 74.9503 24.8067C74.9006 24.6076 74.8259 24.4707 74.7264 24.3961C74.6268 24.2965 74.4402 24.2467 74.1664 24.2467H67.4472C67.273 24.2467 67.1361 24.309 67.0365 24.4334C66.937 24.5329 66.8623 24.6947 66.8126 24.9187C66.713 25.2422 66.5886 25.6155 66.4393 26.0385C66.3148 26.4367 66.178 26.8598 66.0286 27.3077C65.9042 27.7308 65.7798 28.129 65.6553 28.5023C65.5558 28.8756 65.4811 29.1991 65.4314 29.4728C65.3069 30.1448 65.4189 30.6798 65.7673 31.078C66.1406 31.4513 66.7752 31.7499 67.6711 31.9739C68.3431 32.1481 68.679 32.4094 68.679 32.7578C68.679 32.9071 68.5919 33.0316 68.4177 33.1311C68.2684 33.2058 68.0444 33.2431 67.7458 33.2431C67.1734 33.2431 66.5761 33.2182 65.954 33.1684C65.3318 33.1436 64.6475 33.1311 63.9009 33.1311C63.1543 33.1311 62.4201 33.1684 61.6984 33.2431C61.0016 33.3178 60.2924 33.3551 59.5707 33.3551ZM68.455 22.5296H73.6438C73.9922 22.5296 74.1664 22.4549 74.1664 22.3056C74.1664 22.231 74.154 22.1687 74.1291 22.119C74.1291 22.0692 74.1167 21.9945 74.0918 21.895L71.4787 13.2719C71.3792 12.9235 71.2921 12.7493 71.2174 12.7493C71.1676 12.7493 71.0805 12.9111 70.9561 13.2346L67.8204 21.895C67.7707 22.0194 67.7458 22.119 67.7458 22.1936C67.7458 22.3181 67.808 22.4052 67.9324 22.4549C68.0818 22.5047 68.256 22.5296 68.455 22.5296Z" fill="#241F25"/>
</svg>
